<?xml version="1.0" encoding="UTF-8"?>
<!DOCTYPE svg PUBLIC "-//W3C//DTD SVG 1.1//EN" "http://www.w3.org/Graphics/SVG/1.1/DTD/svg11.dtd">
<!-- Creator: CorelDRAW 2019 (64-Bit) -->
<svg xmlns="http://www.w3.org/2000/svg" xml:space="preserve" width="42.3332mm" height="42.3332mm" version="1.1" style="shape-rendering:geometricPrecision; text-rendering:geometricPrecision; image-rendering:optimizeQuality; fill-rule:evenodd; clip-rule:evenodd"
viewBox="0 0 4233.32 4233.32"
 xmlns:xlink="http://www.w3.org/1999/xlink"
 xmlns:xodm="http://www.corel.com/coreldraw/odm/2003">
 <defs>
  <style type="text/css">
   <![CDATA[
    .str0 {stroke:#1A1A1A;stroke-width:7.62;stroke-miterlimit:22.9256}
    .fil1 {fill:none}
    .fil0 {fill:#79667E}
    .fil2 {fill:white}
   ]]>
  </style>
 </defs>
 <g id="Слой_x0020_1">
  <metadata id="CorelCorpID_0Corel-Layer"/>
  <path class="fil0" d="M1105.66 472.11c80.93,734.64 87.19,2399.56 173.4,3769.68l-837.92 0c-105.51,-1397.89 -113.51,-2966.17 -175.41,-3550.48 -60.52,-231.94 78.43,-469.04 310.37,-529.56 231.94,-60.53 469.04,78.42 529.56,310.36zm3113.14 335.79c-983.89,-85.34 -1996.59,-77.52 -2138.39,315.75 -90.02,249.65 -260.39,2286.85 -9.64,3118.14l-602.83 0c-234.13,-1060 -172.11,-3112.21 151.84,-3610.48 324.34,-498.88 1496.41,-561.63 2599.02,-497.28l0 673.87zm0 676.67c-523.09,63.51 -1145.52,184.2 -1328.73,330.35 -123.85,547.06 -245.44,1400.44 -50.12,1971.07 581.89,32.13 915.46,81.21 1378.85,134.44l0 321.36c-598.1,-31.18 -1494.15,-89.3 -1502.68,-89.91 -555.75,-39.55 -331.31,-2198.79 -207.8,-2514.09 129.39,-330.32 1019.42,-520.9 1710.48,-605.93l0 452.71zm0 720.39c-421.01,106.66 -1069.42,325.55 -1026.95,629.62 14.35,102.69 93.14,378.28 137.06,556.78 299.28,-100.61 916.62,-613.43 270.25,-633.85 -74.04,-2.32 -106.9,194.22 -250.39,354.86 65.32,-161.72 95.19,-433.26 247.54,-443.99 753.97,-53.02 370.74,731.12 -286.31,906.44 -231.83,61.86 -331.72,-828.46 -327.95,-881.12 20.68,-288.57 730.9,-616.68 1236.75,-750.43l0 261.69z"/>
  <path class="fil1" d="M685.7 581.71c106.05,406.34 152.19,2889.62 147.14,3460.12 -0.35,38.26 2.71,108.03 8.89,199.96m3377.07 -3751.29c-726.23,-55.61 -1453.4,-65.83 -1935.26,59.27 -751.38,195.07 -538.71,1092.55 -612.06,1868.57 -34.89,369.1 -91.96,1222.93 79.66,1823.45m2467.66 -2984.45c-638.23,80.61 -1424.24,250.39 -1518.67,464.85 -167.21,379.77 -236.89,1903.46 15.99,2243.54 729.03,0 1200.92,63.32 1502.68,110.28m0 -1982.55c-84.66,29.25 -184.92,64.16 -303.78,103.33 -1212.73,399.65 -782.6,535.72 -652.01,1296.86 83.29,19.23 1013.36,-523.66 591.9,-703.71 -458,-195.64 -271.25,6.53 -506.14,322.43"/>
  <path class="fil0" d="M634.19 125.6c-6.98,1167.01 84.25,2209.71 54.08,3372.22 -7.07,272.22 -2.03,513.37 7.4,743.97l-789.88 0 0 -4236.86 711.39 0c11.07,38.3 17.01,78.79 17.01,120.67zm515.4 4116.19c-47.04,-244.02 -77.55,-454.62 -97.83,-569.26 -117.91,-666.46 -267.63,-3073.11 359.52,-3593.28 34.66,-28.74 107.97,-53.29 210.48,-74.32l2597.04 0 0 1047.21c-833.31,-25.87 -1868.18,148.56 -1973.72,583.82 -130.64,538.79 -177.82,1900.54 344.57,2284.22 191.43,140.59 955.61,233.91 1629.15,260.53l0 61.08 -1880.42 0c-693.42,-506.44 -686.14,-2029.99 -525.03,-2725.94 126.65,-547.07 877.73,-827.84 1681.13,-915.87 -807.82,8.67 -1543.5,12.52 -1671.02,-7.58 -323.98,471.16 -250.53,2441.52 -161.05,2973.64 17.76,105.64 67.09,379.29 131.65,675.75l-644.47 0zm3069.21 -2732.89l0 299.45c-830.67,49.37 -1222.81,548.28 -1222.43,1425.1 0.19,470.75 1439.08,675.73 1137.1,-542.49 -39.01,-157.43 -597.51,-479.43 -772.87,485.25 68.18,26.52 252.62,-175.15 297.16,-284.54 10.95,49.72 10.5,59 -11.94,110.47 -300.91,690.38 -649.33,-153.19 -88.26,-531.22 304.41,-205.11 532.96,-118.51 661.24,86.39l0 925.79c-112,197.67 -307.27,341.82 -598.89,342.44 -1403.62,3.06 -925.72,-1833.48 50.02,-2199.14 200.66,-75.19 383.02,-111.87 548.87,-117.5zm-859.85 1666.58c-1.14,-1.16 -2.19,-1.75 -4.32,-2.36 1.37,0.94 2.83,1.68 4.32,2.36z"/>
  <path class="fil1" d="M200.17 125.6c0,756.26 -17.15,1400.93 74.83,2148.12 52.11,423.53 -40.96,1361.64 -11.86,1968.07m3955.66 -4010.31c-1247.44,10.83 -2508.12,44.66 -2557,70.68 -443.93,236.16 -405.45,2314.14 -374.14,2834.6 8.41,139.82 85.6,620.39 191.78,1105.03m2739.36 -3435.49c-915.13,-27.89 -2028.11,189.76 -2189.58,769.6 -82.04,294.62 -93.25,1807.52 79.03,2066.15 236.61,355.24 330.64,505.5 742.51,599.74m1368.04 -2580.18c-923.78,61.53 -1340.84,614.37 -1340.84,1571.84 0,394.82 1190.89,891.91 1340.84,-60.7m0 -454.96c-0.7,-5.86 -1.2,-11.45 -1.95,-17.38 -43.16,-340.64 -897.5,-456.98 -897.5,470.81 0,140.92 346.46,-107.96 338.41,-279.55"/>
  <path class="fil0" d="M2335.48 4241.79c271.56,-345.59 549.2,-697.26 858.51,-1042.29 302.65,-337.62 650.13,-698.15 1024.81,-1054.17l0 795.99c-82.61,95.52 -162.05,189.8 -237.76,282.18 -281.61,343.64 -534.4,682.62 -778.49,1018.29l-867.07 0z"/>
  <path class="fil1" d="M2744.79 4241.79c469.7,-595.34 959.32,-1164.46 1474.01,-1739.08"/>
  <path class="fil0" d="M4218.8 1850.71c-775.11,653.09 -1376.12,1667.42 -1908.48,2388.44l-1.95 2.64 -540.51 0c55.19,-90.94 107.22,-177.15 153.23,-257.02 656.25,-1138.86 1282.07,-2393.33 2297.71,-3097.73l0 963.67z"/>
  <path class="fil1" d="M4218.8 1360.32c-145.56,121.87 -290.73,259.93 -442.92,411.48 -310.4,309.12 -1107.29,1490.59 -1744.87,2469.99"/>
  <path class="fil0" d="M1472.7 4241.79c824.2,-866.29 2041.75,-1866.81 2746.1,-2513.38l0 668.05c-487.34,546.94 -1135.06,1241.34 -1678.94,1845.33l-1067.16 0z"/>
  <path class="fil1" d="M2025.36 4241.79c693.96,-718.95 1604.95,-1575.11 2193.44,-2180.56"/>
  <path class="fil0" d="M4218.8 3181.95c-297.33,325.57 -613.48,688.93 -926.89,1059.84l-667.58 0c608.27,-841.96 1264.24,-1671.75 1594.47,-2072.84l0 1013z"/>
  <path class="fil1" d="M4218.8 2711.78c-385.66,440.9 -840.16,983.43 -1274.09,1530.01"/>
  <path class="fil0" d="M4218.8 3116.95l0 1023.82c-22.42,33.77 -44.96,67.43 -67.6,101.02l-815.93 0c372.75,-468.45 708.95,-896.65 883.53,-1124.84z"/>
  <path class="fil1" d="M3760.97 4241.79c115.39,-156.42 226.01,-306.89 328.92,-445.88 44.73,-60.42 87.62,-119.55 128.91,-177.63"/>
  <path class="fil0" d="M4081.22 4241.79c45.76,-66.42 91.62,-132.75 137.58,-199.03l0 199.03 -137.58 0z"/>
  <path class="fil0" d="M4218.8 1792.45c-1423.79,400.19 -2969.42,897.46 -4313.01,957.26l0 -243.62c448.31,-163.47 884.44,-295.09 1372.78,-450.06 911.58,-289.27 1950.03,-709.32 2940.23,-1054.82l0 791.24z"/>
  <path class="fil1" d="M4218.8 1421.1c-957.7,300.76 -2028.39,649.39 -2361.94,734.5 -267.28,68.19 -1273.9,330.58 -1951.07,481.1"/>
  <path class="fil0" d="M4218.8 1295.17c-1385.59,398.12 -2812.49,1162.94 -4151.05,1567.08l189.52 -276.57c558.78,-582.84 2889.21,-1757.85 3961.53,-2159.97l0 869.46z"/>
  <path class="fil1" d="M4218.8 854.8c-1018.24,351.59 -3914.07,1708.59 -4151.05,2007.45"/>
  <g id="_1586212356688">
   <path class="fil0" d="M3668.12 1309.87c-734.36,20.5 -3014.9,2138.84 -3158.98,2155.63 -19.77,-51.13 -16.82,-26.7 -14.46,-72.36l-2.53 4.77c376.71,-1016.14 2028.82,-2737.3 3155.25,-2955.85 239.64,-5.71 438.55,183.91 444.26,423.55 5.72,239.64 -183.9,438.54 -423.54,444.26z"/>
  </g>
  <path class="fil1" d="M3657.76 875.97c-704.35,16.84 -2864.84,1991.35 -3120.47,2542.87l-28.15 46.66"/>
  <path class="fil0" d="M4218.8 1844.32c-566.01,354.83 -1152.14,694.44 -1727.11,1064.17 -584.33,375.74 -1098.77,717.52 -1732.43,998.4 631.17,-1102.7 2327.4,-2186.65 3344.99,-3014.05 35.46,-28.95 74.15,-51.33 114.55,-67.36l0 1018.84z"/>
  <path class="fil1" d="M4218.8 1353c-469.75,346.49 -958,565.02 -1535.91,1049.35 -155.96,130.73 -1903.33,1396.33 -1923.63,1504.54"/>
  <path class="fil0" d="M4218.8 2526.88c-1070.99,469.56 -1632.11,908.52 -3117.88,1714.91l-581.33 0c1431.15,-1153.28 2332.77,-1855.71 3699.21,-2530.46l0 815.55z"/>
  <path class="fil1" d="M4218.8 2101.87c-422.83,190.1 -821.72,394.23 -1126.45,595.17 -193.26,127.45 -1474.38,998.22 -2320.35,1544.75"/>
  <path class="fil0" d="M4218.8 4241.74l-0.09 0.05 -969.17 0c319.4,-295.19 653.51,-596.57 969.26,-885.08l0 885.03z"/>
  <path class="fil1" d="M4218.8 3804.01c-175.25,147.07 -352.59,293.89 -527.55,437.78"/>
  <path class="fil0" d="M4218.8 3419.65c-391.88,304.84 -769.01,590.77 -1026.98,822.14l-759.23 0c95.47,-118.2 176.6,-215.24 231.4,-281.67 251.57,-305.09 969.11,-970.25 1554.81,-1534.12l0 993.65z"/>
  <path class="fil1" d="M4218.8 2926.06c-379.39,321.21 -728.75,604.43 -851.54,718.51 -121.28,112.7 -333.84,329.87 -576.14,597.22"/>
  <path class="fil0" d="M4218.8 4208.09l-39.24 33.7 -913.06 0c302.57,-335.75 607.98,-653.76 952.3,-981.42l0 947.72z"/>
  <path class="fil1" d="M4218.8 3726.79c-186.32,169.69 -366.55,340.67 -544.81,515"/>
  <path class="fil0" d="M2759.69 543.1c10.61,6.64 21.89,12.88 33.93,18.68 -9.22,-6.4 -20.62,-12.6 -33.93,-18.68zm-2853.9 -538.17l3489.99 0c44.54,70.03 72.03,153.1 77.83,251.56 -7.28,239.58 -207.42,427.91 -447,420.62 -128.08,-3.89 -241.48,-62.9 -318.21,-153.58 -420.8,-138.41 -1907.23,-200.4 -2802.61,-386.39l0 -132.21z"/>
  <path class="fil1" d="M3039.8 243.3c5.8,-186.17 -1263.62,-230.6 -2306.9,-238.37m-826.83 0l-0.28 0"/>
  <path class="fil0" d="M3687.18 1074.59c-1004.48,-49.47 -2547.49,-123.52 -3781.39,-345.95l0 -433.68c1243.01,-72.88 3005.41,-56.35 3781.39,-88.41 239.71,0 434.03,194.31 434.03,434.02 0,239.71 -194.32,434.02 -434.03,434.02z"/>
  <path class="fil1" d="M3687.18 640.57c-1338.55,0 -2482.08,-39.45 -3781.39,-133.51"/>
  <g id="_1586290673296">
   <path class="fil0" d="M2869.04 1130.2c-816.59,57.42 -1577.14,-99.24 -2198.06,290.16 -556.38,-608.55 1820.59,-1087.93 1951.06,-1122.3 229.78,-68.21 471.37,62.78 539.57,292.57 68.21,229.78 -62.78,471.36 -292.57,539.57z"/>
  </g>
  <path class="fil1" d="M2745.54 714.13c-427,126.77 -2074.56,83.71 -2074.56,706.23"/>
  <g id="_1586290671312">
   <path class="fil0" d="M3713.56 1765.51c-752.21,619.01 -1471.8,1343.1 -2438.85,1492.1l-53.8 -384.57c38.87,-325.29 984.93,-1886.95 1204.96,-2243.02 313.57,-355.58 856.01,-389.65 1211.59,-76.09 355.58,313.56 389.66,856 76.1,1211.58z"/>
  </g>
  <path class="fil1" d="M3069.71 1197.77c-518.11,587.59 -853.01,1017.27 -1414.99,1590.28 -212.14,216.3 -232.11,287.36 -380.01,469.56"/>
  <g id="_1586290667248">
   <path class="fil2 str0" d="M619.62 3473.67c489.63,7.65 2519.9,28.47 2864.43,108.6 -906.27,52.28 -1941.81,11.7 -2864.43,18.38 -35.06,0 -63.49,-28.43 -63.49,-63.49 0,-35.06 28.43,-63.49 63.49,-63.49z"/>
  </g>
  <path class="fil1" d="M619.62 3537.16c920.71,0 1849.09,33.83 2751.66,33.83 31.53,0 52.42,11.28 112.77,11.28"/>
  <g id="_1586290703440">
   <path class="fil2 str0" d="M1028.11 3514.37c-94.95,-517.21 -83.42,-955.99 -36.34,-1477.09 52.48,484.41 48.98,933.43 144.08,1409.89 18.56,29.75 9.48,68.91 -20.27,87.47 -29.75,18.56 -68.91,9.48 -87.47,-20.27z"/>
  </g>
  <path class="fil1" d="M1081.98 3480.77c-82.53,-132.34 -90.21,-1266.44 -90.21,-1443.49"/>
  <g id="_1586290688688">
   <path class="fil2 str0" d="M2777.75 3548.44c7.98,-421.92 -27.5,-1200.59 29.66,-1567.55 67.56,519.62 84.7,1044.22 97.32,1567.55 0,35.06 -28.43,63.49 -63.49,63.49 -35.06,0 -63.49,-28.43 -63.49,-63.49z"/>
  </g>
  <path class="fil1" d="M2841.24 3548.44c0,-510.48 -2.73,-806.19 -33.83,-1319.45 -4.24,-70 0,-173.11 0,-248.1"/>
  <g id="_1586290681232">
   <path class="fil2 str0" d="M118.54 1594.19c26.37,39.26 75.72,119.69 112.35,149.79l-5.31 -1.72c77.53,30.02 -15.33,99.38 396.44,185.65 612.65,128.37 2871.74,194.55 3220.52,-443.64 2.76,-5.05 20.12,-9.4 24.94,-10.86 -10.74,12.11 -5.6,7.27 -16.58,16.2 -123.64,301.52 -596.29,424.3 -868.7,491.82 -349.93,86.73 -2558.81,291.85 -2815.07,-133.6 -65.69,-39.47 -110.14,-119.58 -151.61,-179.42 -20.5,-28.45 -14.05,-68.12 14.4,-88.62 28.45,-20.5 68.12,-14.05 88.62,14.4z"/>
  </g>
  <path class="fil1" d="M67.03 1631.3c29.64,41.14 102.08,161.27 144.67,171.09 32.63,157.91 724.94,246.17 915.39,246.17 539.52,0 1033.33,18.23 1556.27,-46.08 296.61,-36.47 1055.95,-205.14 1163.49,-515.86l20.63 -13.21"/>
  <g id="_1586290678256">
   <path class="fil2 str0" d="M44.47 1522.7c1243.9,49.46 1051.78,19.76 2108.86,-658.26 -859.1,782.89 -1016.35,796.99 -2108.86,785.24 -35.06,0 -63.49,-28.43 -63.49,-63.49 0,-35.06 28.43,-63.49 63.49,-63.49z"/>
  </g>
  <path class="fil1" d="M44.47 1586.19c823.61,0 893.27,135.67 1702.55,-411.46 27.67,-18.71 405.61,-310.17 406.31,-310.29"/>
  <g id="_1586290677584">
   <path class="fil2 str0" d="M2172.18 850.75c446.08,380.39 1155.09,471.44 1706.58,600.11 -610.02,-64.8 -1294.97,-128.57 -1789.4,-527.63 -20.01,-22.87 -17.7,-57.64 5.17,-77.65 22.87,-20.01 57.64,-17.7 77.65,5.17z"/>
  </g>
  <path class="fil1" d="M2130.77 886.99c283.72,324.22 1304.32,496.19 1747.99,563.87"/>
  <g id="_1586290675888">
   <path class="fil2 str0" d="M-2046 57.63c-5.82,56.43 2.32,27.53 -29.65,85.06l-0.02 0c-60.09,-26.85 -36.24,-8.61 -74.75,-50.26 -9.61,-28.83 5.98,-60 34.81,-69.61 28.83,-9.61 60,5.98 69.61,34.81z"/>
  </g>
  <line class="fil1" x1="-2098.21" y1="75.03" x2="-2075.66" y2= "142.69" />
  <g id="_1586319662176">
   <path class="fil2 str0" d="M1330.09 2478.45c368.63,10.26 691.29,16.74 1060.06,55.03 -368.77,38.29 -691.43,44.77 -1060.06,55.03 -30.39,0 -55.03,-24.64 -55.03,-55.03 0,-30.39 24.64,-55.03 55.03,-55.03z"/>
  </g>
  <path class="fil1" d="M1330.09 2533.48c353.35,0 706.71,0 1060.06,0"/>
  <g id="_1586319661888">
   <path class="fil2 str0" d="M1296.25 2997.21c647.8,29.02 324.52,6.91 969.85,66.3 -646.42,44.3 -323.14,29.74 -969.85,43.76 -30.39,0 -55.03,-24.64 -55.03,-55.03 0,-30.39 24.64,-55.03 55.03,-55.03z"/>
  </g>
  <path class="fil1" d="M1296.25 3052.24c326.1,0 644.79,11.27 969.85,11.27"/>
  <g id="_1586319660928">
   <path class="fil2 str0" d="M2363.74 2527.32c-39.02,373.25 -17.89,179.46 -63.81,581.3 -57.79,-411.71 -44.67,-206.97 -41.25,-614.08 9.05,-29.01 39.91,-45.19 68.92,-36.14 29.01,9.05 45.19,39.91 36.14,68.92z"/>
  </g>
  <path class="fil1" d="M2311.21 2510.93c-25.85,82.88 -11.28,479.43 -11.28,597.69"/>
  <g id="_1586319606048">
   <path class="fil2 str0" d="M1326.23 2516.03c-52.81,242.17 -11.95,290.77 -41.25,479.82 -91.34,-198.94 -84.38,-301.68 -63.81,-512.58 9.05,-29.01 39.9,-45.2 68.91,-36.15 29.01,9.05 45.2,39.9 36.15,68.91z"/>
  </g>
  <path class="fil1" d="M1273.7 2499.65c-60.8,194.94 14.31,457.87 11.28,496.2"/>
  <g id="_1586319670560">
   <path class="fil2 str0" d="M1791.1 2544.76c-20.03,127.81 -81.34,360.28 -55.03,484.92 -93.69,47.41 -55.27,-479.41 -55.03,-484.92 0,-30.39 24.64,-55.03 55.03,-55.03 30.39,0 55.03,24.64 55.03,55.03z"/>
  </g>
  <path class="fil1" d="M1736.07 2544.76c0,64.02 -73.22,460.82 0,484.92"/>
  <g id="_1586319668448">
   <path class="fil2 str0" d="M2810.46 1469.14c-185.52,103.06 -511.49,327.88 -596.18,127.08 -73.19,-173.53 -746.98,-21.82 -595.42,154.41 156.02,181.41 713.98,-50.27 173.6,-85.5 83.93,-14.55 92.97,-25.65 171.84,-6.08 320.22,79.47 -190.39,350.73 -393.13,135.25 -251.14,-266.93 635.74,-532.59 734.41,-217.83 125.53,-27.83 334.12,-134.97 431.12,-189.01 22.56,-20.37 57.35,-18.6 77.72,3.96 20.37,22.56 18.6,57.35 -3.96,77.72zm-497.31 144.3c0.24,2.21 0.6,4.33 0.77,6.58 -0.17,-2.3 -0.42,-4.5 -0.77,-6.58z"/>
  </g>
  <path class="fil1" d="M2773.58 1428.3c-45.62,41.21 -507.48,244.85 -507.48,191.72 0,-174.67 -355.37,-124.72 -497.16,-113.74 -107.92,8.37 -417.73,328.01 71.52,328.01 314.59,0 225.5,-212.37 -48,-169.16"/>
  <g id="_1586319668480">
   <path class="fil2 str0" d="M1724.79 1556.62c-358.17,112.56 -346.06,134.65 -663.93,153.52 229.21,61.53 548.06,108.19 765.43,135.43 -259.57,7.02 -467.67,-27.68 -726.05,-76.23 -77.39,-14.54 -313.82,-95.75 -132.58,-110.57 424.91,-34.73 368.54,-61.6 757.13,-178.35 21.04,0 38.1,17.06 38.1,38.1 0,21.04 -17.06,38.1 -38.1,38.1z"/>
  </g>
  <path class="fil1" d="M1724.79 1518.52c-43.92,0 -436.21,175.97 -608.97,169.16 -568.41,-22.41 396.03,130.63 432.4,134.36 122.95,12.61 138.59,23.53 278.07,23.53"/>
  <g id="_1586319666560">
   <path class="fil2 str0" d="M3326.17 1345.1c59.13,13.37 400.56,80.72 579.65,116.25 -132.93,-39.14 -381.17,-111.87 -381.18,-111.87 -251.04,-96.18 -198.44,-73.06 -378.91,-180.55 208.32,94.51 594.46,246.57 814.27,273.24 51.92,6.3 69.02,26.53 61.58,55.01 6.52,13.66 4.46,8.27 -6.17,33.95l-15.98 6.62c-125.2,161.88 -699.17,453.92 -700.25,304.6 -0.3,-41.15 338.62,-231.63 553.96,-322.21 -306.85,-45.64 -171.89,-20.78 -526.97,-98.84 -21.04,0 -38.1,-17.06 -38.1,-38.1 0,-21.04 17.06,-38.1 38.1,-38.1zm517.65 257.66c-103.52,44.66 -108.1,53.85 -334.18,177.14l-77.38 37.28c106.81,-38.45 285.96,-132.5 411.56,-214.42z"/>
  </g>
  <path class="fil1" d="M3326.17 1383.2c93.76,0 425.83,124.05 665.36,124.05 -179.98,0 -454.67,256.68 -663.43,328.97 -30.37,146.77 889.64,-381.79 632.5,-374.08 -107.69,3.23 -770.61,-240.69 -814.87,-293.21"/>
 </g>
</svg>
