<?xml version="1.0" encoding="UTF-8"?>
<!DOCTYPE svg PUBLIC "-//W3C//DTD SVG 1.1//EN" "http://www.w3.org/Graphics/SVG/1.1/DTD/svg11.dtd">
<!-- Creator: CorelDRAW 2019 (64-Bit) -->
<svg xmlns="http://www.w3.org/2000/svg" xml:space="preserve" width="42.3332mm" height="42.3332mm" version="1.1" style="shape-rendering:geometricPrecision; text-rendering:geometricPrecision; image-rendering:optimizeQuality; fill-rule:evenodd; clip-rule:evenodd"
viewBox="0 0 4233.32 4233.32"
 xmlns:xlink="http://www.w3.org/1999/xlink"
 xmlns:xodm="http://www.corel.com/coreldraw/odm/2003">
 <defs>
  <style type="text/css">
   <![CDATA[
    .str0 {stroke:black;stroke-width:20;stroke-miterlimit:22.9256}
    .fil2 {fill:none}
    .fil0 {fill:#7E6D66}
    .fil1 {fill:white}
   ]]>
  </style>
 </defs>
 <g id="Слой_x0020_1">
  <metadata id="CorelCorpID_0Corel-Layer"/>
  <rect class="fil0 str0" x="-25.41" y="-16.95" width="4284.14" height="4250.27"/>
  <g id="_1693726444496">
   <path class="fil1" d="M333.42 946.44c14.8,710.22 42.92,1219.53 12.7,1955.8 -26.83,-653.74 -62.29,-1305.86 -88.9,-1955.8 0,-21.04 17.06,-38.1 38.1,-38.1 21.04,0 38.1,17.06 38.1,38.1z"/>
  </g>
  <path class="fil2" d="M295.32 946.44c0,336.76 50.8,692.93 50.8,1075.27 0,293.51 0,587.02 0,880.53"/>
  <g id="_1693726440464">
   <path class="fil1" d="M271.92 899.43c504.79,-305.21 1161.43,183.99 642.33,689.94 -87.93,85.71 -290.63,160.67 -436.92,171.12 412,167.42 276.97,112.02 475.17,738.26 20.62,65.17 160.92,509.53 240.29,538.96 -118.5,35.31 -390.44,-938.36 -413.31,-996.14 -129.52,-327.25 -504.85,-214.45 -452.5,-326.55 189.05,-37.43 381.26,-4.21 545.36,-168.44 460.64,-460.99 -129.53,-848.59 -553.62,-587.01 -16.61,12.92 -40.55,9.94 -53.47,-6.67 -12.92,-16.61 -9.94,-40.55 6.67,-53.47z"/>
  </g>
  <path class="fil2" d="M295.32 929.5c253.46,-197.14 1087.23,-46.32 647.58,580.09 -241.47,344.04 -883.44,148.54 -451.88,265.86 372.64,101.29 299.5,345.47 447.04,728.86 20.75,53.9 180.4,539.27 254.73,533.4"/>
  <g id="_1693726440976">
   <path class="fil1" d="M1540.48 776.5c-209.43,624.84 -288.78,1653.14 -347.69,2328.94 -12.46,-636.22 87.38,-1762.63 278.85,-2361.6 9.02,-19.01 31.74,-27.11 50.75,-18.09 19.01,9.02 27.11,31.74 18.09,50.75z"/>
  </g>
  <path class="fil2" d="M1506.06 760.17c-151.92,320.27 -313.27,1901.55 -313.27,2345.27"/>
  <g id="_1693726437136">
   <path class="fil1" d="M1569.56 777.1c30.35,637.8 290.99,1796.21 444.5,2455.34 -176.7,-478.19 -488.71,-1947.9 -520.7,-2455.34 0,-21.04 17.06,-38.1 38.1,-38.1 21.04,0 38.1,17.06 38.1,38.1z"/>
  </g>
  <path class="fil2" d="M1531.46 777.1c0,597.86 303.32,1533.42 407.85,2185.14 0.99,6.17 60.39,247.57 74.75,270.2"/>
  <g id="_1693726434160">
   <path class="fil1" d="M1277.46 2144.47c11.85,0 541.32,21.54 499.53,71.97 -50.98,-45.4 -437.6,-0.61 -499.53,4.23 -21.04,0 -38.1,-17.06 -38.1,-38.1 0,-21.04 17.06,-38.1 38.1,-38.1z"/>
  </g>
  <path class="fil2" d="M1277.46 2182.57c54.48,0 505.23,-32.56 499.53,33.87"/>
  <g id="_1693726434800">
   <path class="fil1" d="M2036.95 3099.85c-4.12,-38.82 -51.57,-3001.1 194.35,-1936.23 23.7,102.6 360.82,1591.87 396.38,1854.59 200.82,-959.49 234.85,-1658.51 266.91,-2639.04l5.66 339.37c0.11,277.47 -103.96,2299.06 -252.07,2381.96 -6.34,-13.55 -12.66,-27.83 -18.98,-42.76l-13.15 15.51 6.63 -31.29c-177.11,-432.25 -344.38,-1381.7 -468.13,-1917.81 -57.45,527.62 -87.48,1533.65 -44.86,1953.02 6.26,20.09 -4.94,41.45 -25.03,47.71 -20.09,6.26 -41.45,-4.94 -47.71,-25.03z"/>
  </g>
  <path class="fil2" d="M2073.32 3088.51c-54.21,-173.98 24.44,-2062.16 74.02,-2126.35 43.55,94.47 219.37,1054.79 280.37,1277.99 15.35,56.15 208.23,839.76 211.43,838.44 201.47,-871.85 255.45,-1797.31 255.45,-2699.42"/>
  <g id="_1693726433328">
   <path class="fil1" d="M3051.23 1149.64c-8.63,611.18 -19.21,1209.29 -46.57,1820.34 -23.82,-612.14 -24.55,-1208.55 -29.63,-1820.34 0,-21.04 17.06,-38.1 38.1,-38.1 21.04,0 38.1,17.06 38.1,38.1z"/>
  </g>
  <path class="fil2" d="M3013.13 1149.64c0,604.14 -8.47,1213.76 -8.47,1820.34"/>
  <g id="_1693726433488">
   <path class="fil1" d="M3017.53 1111.76c593.48,-28.92 809.51,362.37 884.38,922.73 76.8,574.79 -695.21,845.17 -1159.72,867.75 27.26,-8.83 25.3,-8.95 53.26,-15.01 411.12,-89.19 1135.66,-289.95 1051.74,-842.98 -78.07,-514.45 -267.21,-891.01 -821.54,-856.73 -20.92,2.24 -39.7,-12.9 -41.94,-33.82 -2.24,-20.92 12.9,-39.7 33.82,-41.94z"/>
  </g>
  <path class="fil2" d="M3021.59 1149.64c579.49,-62.11 763.95,390.36 852.96,889.73 63.44,355.9 -190.18,484.64 -448.01,659.67 -229.62,155.88 -344.02,140.93 -630.16,193.29l-54.19 9.91"/>
 </g>
</svg>
